# xmcd
#
# Track frame offsets:
#	150
#	13415
#	28991
#	41686
#	60609
#	71079
#	84727
#	99641
#	113743
#	127703
#	147319
#	160462
#
# Disc length: 2321 seconds
#
# Revision: 1
# Processed by: cddbd v1.5.2PL0 Copyright (c) Steve Scherf et al.
# Submitted via: audiograbber 1.83.01
#
DISCID=ab090f0c
DTITLE=Black Hills Country Band - WE
DYEAR=1900
DGENRE=
TTITLE0=Mama's green eyes
TTITLE1=Gone out of my mind
TTITLE2=Toe tappin' country man
TTITLE3=We
TTITLE4=Cajun to dance to
TTITLE5=Behind closed doors
TTITLE6=Jessico
TTITLE7=Someone like you
TTITLE8=The shelter of your eyes
TTITLE9=Take it to the limit
TTITLE10=Girls like that
TTITLE11=Only love
EXTD=
EXTT0=
EXTT1=
EXTT2=
EXTT3=
EXTT4=
EXTT5=
EXTT6=
EXTT7=
EXTT8=
EXTT9=
EXTT10=
EXTT11=
PLAYORDER=
